# Blender v2.80 (sub 75) OBJ File: ''
# www.blender.org
mtllib ship.mtl
o Cube_Cube.001
v -1.023176 -0.994110 0.899027
v -0.904678 -0.459991 0.899027
v -1.023176 -0.907671 -1.100973
v -0.904678 -0.603556 -1.100973
v -0.342545 -0.880084 -1.784972
v -0.301527 -1.021855 -1.784972
v -0.724474 -0.912970 1.098282
v -1.090311 -0.907671 -0.596907
v -1.090311 -0.907671 0.797494
v -0.971813 -0.603556 0.797494
v -0.971813 -0.603556 -0.596907
v -1.452515 -0.661489 0.019338
v -1.616589 -0.661489 0.932104
v -1.616589 -0.589954 0.932104
v -1.452515 -0.589954 0.019338
v -0.724474 -0.565235 1.098282
v -0.904678 -0.478683 -0.634109
v -1.023176 -1.014010 -0.590563
v -0.461031 -0.507266 -1.073627
v -0.488905 -0.458582 -0.375543
v -0.380254 -0.428966 -1.089601
v -0.373992 -0.380282 -0.407924
v -0.084882 -0.554955 1.289702
v -0.084882 -0.959513 1.289702
v -0.084882 -0.554955 0.899946
v -0.084882 -0.959513 0.899946
v -0.724474 -0.565235 0.708525
v -0.724474 -0.912970 0.708525
v -1.779786 -0.798218 -0.668644
v -1.952064 -0.852909 -0.040273
v -1.961179 -0.817835 -0.040273
v -1.779786 -0.760897 -0.668644
v 1.213820 -0.994110 0.899027
v 1.095322 -0.459991 0.899027
v 1.213820 -0.907671 -1.100973
v 1.095322 -0.603556 -1.100973
v 0.533189 -0.880084 -1.784972
v 0.492170 -1.021855 -1.784972
v 0.095322 -1.081104 -1.100973
v 0.915118 -0.912970 1.098282
v 0.095322 -1.081104 1.090448
v 0.095322 -0.443796 1.090448
v 0.095322 -1.081104 -1.976393
v 0.095322 -0.880084 -1.976393
v 1.280955 -0.907671 -0.596907
v 1.280955 -0.907671 0.797494
v 1.162457 -0.603556 0.797494
v 1.162457 -0.603556 -0.596907
v 1.643158 -0.661489 0.019338
v 1.807233 -0.661489 0.932104
v 1.807233 -0.589954 0.932104
v 1.643158 -0.589954 0.019338
v 0.915118 -0.565235 1.098282
v 1.095322 -0.478683 -0.634109
v 1.213820 -1.014010 -0.590563
v 0.095322 -1.187443 -0.452987
v 0.651675 -0.507266 -1.073627
v 0.679548 -0.458582 -0.375543
v 0.095322 -0.666912 -1.500619
v 0.095322 -0.443796 0.033995
v 0.570898 -0.428966 -1.089601
v 0.095322 -0.365496 -1.116946
v 0.095322 -0.308384 -0.487214
v 0.564635 -0.380282 -0.407924
v 0.095322 -0.545589 -1.399290
v 0.095322 -0.365496 -0.087188
v 0.275526 -0.554955 1.289702
v 0.275526 -0.959513 1.289702
v 0.275526 -0.554955 0.899946
v 0.275526 -0.959513 0.899946
v 0.915118 -0.565235 0.708525
v 0.915118 -0.912970 0.708525
v 1.970429 -0.798218 -0.668644
v 2.142708 -0.852909 -0.040273
v 2.151823 -0.817835 -0.040273
v 1.970429 -0.760897 -0.668644
vt 0.875000 0.750000
vt 0.875000 0.570124
vt 0.875000 0.500000
vt 0.875000 0.750000
vt 0.125000 0.750000
vt 0.250000 0.750000
vt 0.250000 0.750000
vt 0.125000 0.750000
vt 0.750000 0.750000
vt 0.875000 0.750000
vt 0.750000 0.750000
vt 0.250000 0.500000
vt 0.125000 0.500000
vt 0.125000 0.500000
vt 0.250000 0.500000
vt 0.375000 0.250000
vt 0.625000 0.250000
vt 0.625000 0.250000
vt 0.375000 0.250000
vt 0.875000 0.500000
vt 0.799660 0.500000
vt 0.750000 0.500000
vt 0.750000 0.500000
vt 0.875000 0.500000
vt 0.625000 0.375000
vt 0.375000 0.375000
vt 0.250000 0.577580
vt 0.125000 0.563801
vt 0.625000 0.250000
vt 0.375000 0.250000
vt 0.375000 0.250000
vt 0.625000 0.250000
vt 0.125000 0.500000
vt 0.375000 1.000000
vt 0.625000 1.000000
vt 0.625000 1.000000
vt 0.375000 1.000000
vt 0.375000 0.250000
vt 0.625000 0.250000
vt 0.625000 1.000000
vt 0.375000 1.000000
vt 0.875000 0.500000
vt 0.875000 0.750000
vt 0.125000 0.750000
vt 0.125000 0.750000
vt 0.125000 0.500000
vt 0.000000 0.000000
vt 0.000000 0.000000
vt 0.000000 0.000000
vt 0.000000 0.000000
vt 0.750000 0.500000
vt 0.799660 0.500000
vt 0.802979 0.573105
vt 0.750000 0.575298
vt 0.802979 0.573105
vt 0.750000 0.628720
vt 0.750000 0.628720
vt 0.750000 0.500000
vt 0.250000 0.750000
vt 0.125000 0.750000
vt 0.375000 1.000000
vt 0.625000 1.000000
vt 0.375000 0.875000
vt 0.625000 0.875000
vt 0.625000 1.000000
vt 0.375000 1.000000
vt 0.000000 0.000000
vt 0.000000 0.000000
vt 0.875000 0.750000
vt 0.750000 0.750000
vt 0.375000 0.000000
vt 0.625000 0.000000
vt 0.625000 1.000000
vt 0.375000 1.000000
vt 0.875000 0.500000
vt 0.875000 0.750000
vt 0.125000 0.750000
vt 0.125000 0.500000
vt 0.875000 0.750000
vt 0.875000 0.750000
vt 0.875000 0.500000
vt 0.875000 0.570124
vt 0.125000 0.750000
vt 0.125000 0.750000
vt 0.250000 0.750000
vt 0.750000 0.750000
vt 0.875000 0.750000
vt 0.125000 0.500000
vt 0.125000 0.500000
vt 0.375000 0.250000
vt 0.375000 0.250000
vt 0.625000 0.250000
vt 0.625000 0.250000
vt 0.875000 0.500000
vt 0.875000 0.500000
vt 0.799660 0.500000
vt 0.125000 0.563801
vt 0.625000 0.250000
vt 0.625000 0.250000
vt 0.375000 0.250000
vt 0.375000 0.250000
vt 0.125000 0.500000
vt 0.375000 1.000000
vt 0.375000 1.000000
vt 0.625000 1.000000
vt 0.625000 1.000000
vt 0.625000 0.250000
vt 0.375000 0.250000
vt 0.375000 1.000000
vt 0.625000 1.000000
vt 0.875000 0.750000
vt 0.875000 0.500000
vt 0.125000 0.500000
vt 0.125000 0.750000
vt 0.125000 0.750000
vt 0.000000 0.000000
vt 0.000000 0.000000
vt 0.802979 0.573105
vt 0.799660 0.500000
vt 0.802979 0.573105
vt 0.125000 0.750000
vt 0.250000 0.750000
vt 0.625000 1.000000
vt 0.375000 1.000000
vt 0.375000 0.875000
vt 0.375000 1.000000
vt 0.625000 1.000000
vt 0.625000 0.875000
vt 0.000000 0.000000
vt 0.000000 0.000000
vt 0.750000 0.750000
vt 0.875000 0.750000
vt 0.375000 0.000000
vt 0.625000 0.000000
vt 0.375000 1.000000
vt 0.625000 1.000000
vt 0.875000 0.750000
vt 0.875000 0.500000
vt 0.125000 0.500000
vt 0.125000 0.750000
vn -0.8941 0.4479 -0.0029
vn -0.1710 -0.8567 0.4867
vn -0.1246 0.8719 0.4735
vn -0.1515 -0.9885 0.0023
vn -0.7060 0.1227 -0.6975
vn -0.1453 0.8757 -0.4604
vn -0.4193 -0.0502 -0.9065
vn -0.1400 -0.9739 -0.1788
vn -0.7755 0.2446 -0.5820
vn -0.8373 -0.5353 -0.1115
vn -0.9247 0.3603 -0.1232
vn -0.8397 0.2374 0.4884
vn 0.9030 0.0000 -0.4296
vn 0.2096 -0.0661 0.9755
vn 0.0254 0.9997 0.0018
vn -0.5076 -0.8609 -0.0361
vn 0.7417 0.0000 0.6708
vn -0.8889 0.4426 -0.1184
vn -0.8216 -0.5700 0.0039
vn -0.1215 -0.9917 0.0413
vn -0.1501 0.9855 -0.0788
vn -0.6332 0.7713 -0.0643
vn -0.0839 0.9853 -0.1488
vn -0.0240 0.9997 -0.0050
vn -0.1268 0.9820 0.1402
vn -0.1420 0.8346 -0.5323
vn -0.3748 0.7746 0.5094
vn -0.4135 0.4943 -0.7646
vn 0.0726 0.9974 0.0000
vn -0.6348 0.0853 0.7680
vn -0.2867 0.0000 0.9580
vn -1.0000 0.0000 0.0000
vn 1.0000 0.0000 0.0000
vn 0.0161 -0.9999 0.0000
vn -0.9528 -0.1200 -0.2788
vn -0.9354 -0.0800 0.3444
vn -0.4027 0.9136 -0.0565
vn 0.3529 -0.9346 0.0439
vn 0.8941 0.4479 -0.0029
vn 0.1710 -0.8567 0.4867
vn 0.1246 0.8719 0.4735
vn 0.1515 -0.9885 0.0023
vn 0.7060 0.1227 -0.6975
vn 0.1453 0.8757 -0.4604
vn 0.4193 -0.0502 -0.9065
vn 0.1400 -0.9739 -0.1788
vn 0.7755 0.2446 -0.5820
vn 0.8373 -0.5353 -0.1115
vn 0.9247 0.3603 -0.1232
vn 0.8397 0.2374 0.4884
vn -0.9030 0.0000 -0.4296
vn -0.2096 -0.0661 0.9755
vn -0.0254 0.9997 0.0018
vn 0.5076 -0.8609 -0.0361
vn -0.7417 0.0000 0.6708
vn 0.8889 0.4426 -0.1184
vn 0.8216 -0.5700 0.0039
vn 0.1215 -0.9917 0.0413
vn 0.1501 0.9855 -0.0788
vn 0.6332 0.7713 -0.0643
vn 0.0839 0.9853 -0.1488
vn 0.0240 0.9997 -0.0050
vn 0.1268 0.9820 0.1402
vn 0.1420 0.8346 -0.5323
vn 0.3748 0.7746 0.5094
vn 0.4135 0.4943 -0.7646
vn -0.0726 0.9974 0.0000
vn 0.6348 0.0853 0.7680
vn 0.2867 0.0000 0.9580
vn -0.0161 -0.9999 0.0000
vn 0.9528 -0.1200 -0.2788
vn 0.9354 -0.0800 0.3444
vn 0.4027 0.9136 -0.0565
vn -0.3529 -0.9346 0.0439
usemtl None
s off
f 2/1/1 17/2/1 11/3/1 10/4/1
f 1/5/2 41/6/2 24/7/2 7/8/2
f 42/9/3 2/1/3 16/10/3 23/11/3
f 39/12/4 3/13/4 6/14/4 43/15/4
f 3/16/5 4/17/5 5/18/5 6/19/5
f 4/20/6 19/21/6 59/22/6 44/23/6 5/24/6
f 6/19/7 5/18/7 44/25/7 43/26/7
f 3/13/8 39/12/8 56/27/8 18/28/8
f 11/29/9 8/30/9 12/31/9 15/32/9
f 3/13/10 18/28/10 8/33/10
f 4/17/11 3/16/11 8/30/11 11/29/11
f 1/34/12 2/35/12 10/36/12 9/37/12
f 15/32/13 12/31/13 29/38/13 32/39/13
f 9/37/14 10/36/14 14/40/14 13/41/14
f 10/4/15 11/3/15 15/42/15 14/43/15
f 8/33/16 9/44/16 13/45/16 12/46/16
f 41/47/17 42/48/17 23/49/17 24/50/17
f 11/3/18 17/2/18 4/20/18
f 8/33/19 18/28/19 1/5/19 9/44/19
f 18/28/20 56/27/20 41/6/20 1/5/20
f 62/51/21 21/52/21 22/53/21 63/54/21
f 19/21/22 20/55/22 22/53/22 21/52/22
f 20/55/23 19/21/23 4/20/23 17/2/23
f 60/56/24 20/55/24 17/2/24 2/1/24 42/9/24
f 63/54/25 22/53/25 66/57/25
f 65/58/26 21/52/26 62/51/26
f 20/55/27 60/56/27 66/57/27 22/53/27
f 59/22/28 19/21/28 21/52/28 65/58/28
f 7/8/29 24/7/29 26/59/29 28/60/29
f 2/35/30 1/34/30 7/61/30 16/62/30
f 26/63/31 25/64/31 27/65/31 28/66/31
f 24/50/32 23/49/32 25/67/32 26/68/32
f 16/62/33 7/61/33 28/66/33 27/65/33
f 23/11/34 16/10/34 27/69/34 25/70/34
f 30/71/35 31/72/35 32/39/35 29/38/35
f 13/41/36 14/40/36 31/73/36 30/74/36
f 14/43/37 15/42/37 32/75/37 31/76/37
f 12/46/38 13/45/38 30/77/38 29/78/38
f 34/79/39 47/80/39 48/81/39 54/82/39
f 33/83/40 40/84/40 68/85/40 41/6/40
f 42/9/41 67/86/41 53/87/41 34/79/41
f 39/12/42 43/15/42 38/88/42 35/89/42
f 35/90/43 38/91/43 37/92/43 36/93/43
f 36/94/44 37/95/44 44/23/44 59/22/44 57/96/44
f 38/91/45 43/26/45 44/25/45 37/92/45
f 35/89/46 55/97/46 56/27/46 39/12/46
f 48/98/47 52/99/47 49/100/47 45/101/47
f 35/89/48 45/102/48 55/97/48
f 36/93/49 48/98/49 45/101/49 35/90/49
f 33/103/50 46/104/50 47/105/50 34/106/50
f 52/99/51 76/107/51 73/108/51 49/100/51
f 46/104/52 50/109/52 51/110/52 47/105/52
f 47/80/53 51/111/53 52/112/53 48/81/53
f 45/102/54 49/113/54 50/114/54 46/115/54
f 41/47/55 68/116/55 67/117/55 42/48/55
f 48/81/56 36/94/56 54/82/56
f 45/102/57 46/115/57 33/83/57 55/97/57
f 55/97/58 33/83/58 41/6/58 56/27/58
f 62/51/59 63/54/59 64/118/59 61/119/59
f 57/96/60 61/119/60 64/118/60 58/120/60
f 58/120/61 54/82/61 36/94/61 57/96/61
f 60/56/62 42/9/62 34/79/62 54/82/62 58/120/62
f 63/54/63 66/57/63 64/118/63
f 65/58/64 62/51/64 61/119/64
f 58/120/65 64/118/65 66/57/65 60/56/65
f 59/22/66 65/58/66 61/119/66 57/96/66
f 40/84/67 72/121/67 70/122/67 68/85/67
f 34/106/68 53/123/68 40/124/68 33/103/68
f 70/125/69 72/126/69 71/127/69 69/128/69
f 68/116/33 70/129/33 69/130/33 67/117/33
f 53/123/32 71/127/32 72/126/32 40/124/32
f 67/86/70 69/131/70 71/132/70 53/87/70
f 74/133/71 73/108/71 76/107/71 75/134/71
f 50/109/72 74/135/72 75/136/72 51/110/72
f 51/111/73 75/137/73 76/138/73 52/112/73
f 49/113/74 73/139/74 74/140/74 50/114/74
